<?xml version="1.0" encoding="UTF-8"?>
<!DOCTYPE svg PUBLIC "-//W3C//DTD SVG 1.1//EN" "http://www.w3.org/Graphics/SVG/1.1/DTD/svg11.dtd">
<!-- Creator: CorelDRAW 2020 (64-Bit) -->
<svg xmlns="http://www.w3.org/2000/svg" xml:space="preserve" width="1.12168in" height="1.3088in" version="1.1" style="shape-rendering:geometricPrecision; text-rendering:geometricPrecision; image-rendering:optimizeQuality; fill-rule:evenodd; clip-rule:evenodd"
viewBox="0 0 819.01 955.63"
 xmlns:xlink="http://www.w3.org/1999/xlink"
 xmlns:xodm="http://www.corel.com/coreldraw/odm/2003">
 <defs>
  <style type="text/css">
   <![CDATA[
    .fil0 {fill:#009933}
    .fil2 {fill:#01A9AA}
    .fil3 {fill:#01A9EA}
    .fil5 {fill:#01B8F1}
    .fil4 {fill:#1074BF}
    .fil7 {fill:#7ED2F6}
    .fil1 {fill:#86CE9D}
    .fil6 {fill:#BFDEA5}
   ]]>
  </style>
 </defs>
 <g id="Layer_x0020_1">
  <metadata id="CorelCorpID_0Corel-Layer"/>
  <g id="_2244179241488">
   <path class="fil0" d="M241.86 597.08c-7.76,-26.43 -20.59,-52.59 -27.45,-82.01 -35.74,-153.31 5.78,-307.52 107.46,-420.49 30.82,-34.23 79.89,-73.61 120.34,-94.58 -25.08,2.76 -95.07,46.21 -117.5,63.78 -256.27,200.67 -235.12,577.58 22.99,751.82 3.79,2.56 7.63,5.07 11.5,7.52 -2.15,-10.23 -3.29,-20.82 -3.29,-31.69 0,-84.59 68.57,-153.16 153.17,-153.16 4.28,0 8.51,0.18 12.7,0.53 2.87,0.16 5.77,0.37 8.73,0.68 80.77,8.36 127.74,72.17 134.19,149.65 14.05,-2.19 130.3,-130.97 154.32,-149.56 -0.53,-0.66 -1.17,-1.52 -1.56,-2l-13.68 -13.32c-83.05,-71.26 -170.96,-184.31 -214.73,-283.68 -14.01,-31.81 -58.6,-180.39 -56.62,-206.26 0.97,-12.74 5.91,-33.23 -12.04,-35.23l-0.08 387.23c0,4.98 0.18,8.94 0.49,12.12 8.38,3.27 14.31,11.42 14.31,20.96 0,12.42 -10.07,22.49 -22.49,22.49 -12.42,0 -22.49,-10.07 -22.49,-22.49 0,-8.41 4.61,-15.74 11.45,-19.59 0.38,-2.74 0.61,-6.2 0.62,-10.67 0,-28.29 4.04,-377.89 -2.72,-388.98 -17.2,9.5 -6.93,24.12 -7.58,39.86 -0.37,8.84 -7.02,29.58 -9.31,39.59 -29.62,129.26 -72.16,219.3 -149.35,320.75 -10.65,14 -72.37,92.55 -91.36,96.73zm382.49 295.19c67.51,-3.66 145.79,-20.43 179.34,-45.2 -36.76,1.86 -76.65,25.27 -161.57,20.28 -5.09,8.9 -11.06,17.24 -17.77,24.91z"/>
   <path class="fil1" d="M77.1 427.17c0,-87.38 24.49,-175.65 57.86,-237.96 17.72,-33.08 33.84,-58.89 56.87,-89.31 26.99,-35.64 58.33,-59.29 71.27,-75.78 -31.03,8.88 -98.85,65.58 -122.01,89.74 -38.4,40.05 -62.55,73.43 -88.17,123.07 -59.6,115.48 -64.88,229.19 -35.57,353.59 23.62,100.25 92.47,197.44 167.35,255.66 79.67,61.95 199.16,114.28 307.7,109.12 -5.28,-6.09 -31.37,-9.11 -43.17,-13.25 -223.26,-78.38 -372.14,-268.01 -372.14,-514.86z"/>
   <path class="fil0" d="M547.06 730.03c10.94,5.13 27.26,11.52 39.41,15.01 2.37,0.68 4.82,1.47 7.07,2.03 2.55,0.64 4.89,0.69 7.25,1.37 -6.04,3.48 -35.22,-4.72 -43.51,-7.35 -2.56,-0.82 -11.32,-4.05 -13.21,-3.99 -1.44,2.6 -3.22,8.5 -4.49,11.87 -2.17,5.75 -13.19,33.79 -13.28,35.45 1.77,1.04 7.11,2.98 9.62,3.92l29.59 10.64c6.58,2.16 13.34,4.33 20.66,6.12l21.66 5.4c-6.77,0.31 -16.49,-2.05 -23.18,-3.04 -12.7,-1.88 -29.39,-6.49 -41.96,-9.96l-19.46 -5.87 -11.04 28.28c-1.9,5.66 -10.69,24.62 -11.15,27.69 3.03,1.95 16.29,6.76 20.45,8.31 16.33,6.08 27.42,8.95 43.64,13.75 3.94,1.17 21.33,4.57 22.92,5.52 -14.59,0.18 -54.32,-8.79 -69.46,-13.38l-21.11 -6.29 -8.3 19.41c0.21,-6.17 4.07,-14.77 4.32,-20.64 -2.61,-1.77 -6.3,-2.36 -9.45,-3.59 -2.96,-1.16 -6.24,-2.22 -9.16,-3.39 -6.09,-2.45 -12.23,-4.84 -18.22,-7.32 -6.34,-2.62 -11.8,-5.22 -17.54,-7.95 -2.77,-1.32 -15.91,-8.12 -17.26,-8.29 -2.57,5.68 -3.25,31.62 -3.2,40.16 0.03,4.61 0.79,9.68 0.61,13.82 -2.81,-3.6 -7.49,-21.74 -8.57,-28.16 -0.91,-5.38 -1.6,-10.86 -1.95,-16.46 -1.49,-23.28 3.75,-13.76 -10.14,-23.36 -7.63,-5.27 -15.46,-10.31 -22.43,-16.46 -1.15,-1.01 -2.6,-2.76 -4.05,-3.29 -1.57,27.38 9.27,57 20.45,75.15 41.87,67.97 131.42,86.07 196.59,41.37 20.63,-14.15 32.71,-29.62 44.84,-50.98 2.39,-4.22 5.07,-12.27 6.89,-16.96 7.55,-19.35 9.24,-41.16 7.04,-62.15 -1.44,-13.71 -5.27,-26.42 -10,-37.75 -2.42,-5.8 -5.36,-10.32 -8.18,-15.71 -7.31,-13.99 -20.81,-29.26 -32.91,-38.61 -5.6,-4.32 -24.1,-16.99 -29.78,-17.76 -0.67,1.6 -1.68,6.33 -2.13,8.2 -0.68,2.78 -1.65,5.4 -2.38,8.03 -2.38,8.5 -15.69,45.41 -15.51,47.18z"/>
   <path class="fil2" d="M495.54 845.46c0.33,-0.54 15.48,-57.05 15.5,-58.11l-17.69 -7.03c-14.62,-5.96 -28.12,-12.36 -42.09,-19.84 -1.53,-0.82 -6.13,-3.76 -7.61,-4.28 -4,4.55 -16.84,41.91 -18.45,51.25 10.89,7.8 22.18,14.1 33.91,20.56 3.93,2.16 31.85,16.38 36.42,17.45z"/>
   <path class="fil3" d="M528.39 730.3c-2.36,-0.58 -16.81,-7.72 -19.55,-9.35 -6.85,-4.07 -17.29,-10 -23.14,-14.57 -1.19,-0.93 -3.94,-3.32 -5.23,-3.94 -4.37,1.99 -28.94,35.47 -29.75,40.56 8.44,7.42 55.35,34.25 62.8,35.58l14.86 -48.28z"/>
   <path class="fil4" d="M410.63 796.17c0.17,-6.94 4.07,-20.74 6,-27.07 2.57,-8.45 5.51,-15.5 8.95,-24.01 -0.96,-1.31 -6.51,-5.09 -8.41,-6.57 -2.92,-2.27 -5.34,-4.28 -7.93,-6.72 -2.38,-2.24 -5.33,-4.99 -7.52,-7.51 -2.68,-3.09 -5.19,-7.54 -6.78,-8.33 -0.82,2.29 -4.5,7.72 -5.82,10.17 -2.06,3.81 -3.61,7.09 -5.21,10.64 -3.73,8.32 -6.85,15.69 -2.98,25.43 2.96,7.43 8.18,13.74 12.89,18.95 2.65,2.93 14.34,14.4 16.82,15.03z"/>
   <path class="fil5" d="M433.74 728.89c5.15,-8.5 9.03,-14.58 14.75,-22.07 4.28,-5.61 8.21,-9.75 12.98,-14.63 1.74,-1.78 3.66,-3.03 4.78,-4.83 -1.77,-4.48 -5.72,-8.49 -4.41,-16.02 0.75,-4.29 3.35,-7.23 6.8,-9.21l3.32 -1.89c0.07,-0.05 0.2,-0.15 0.29,-0.23 -5.64,0.18 -20.75,7.46 -26.09,10.16 -6.78,3.43 -27.99,16.26 -30.67,23.78 -4.73,13.28 13.87,32.58 18.25,34.95z"/>
   <path class="fil6" d="M491.19 692.37c1.62,2.22 6.58,6.44 8.87,8.42 5.29,4.59 25.52,19.2 31.04,20.92 0.99,-1.12 10.7,-30.65 12.53,-35.63 0.34,-0.92 0.92,-2.26 1.28,-3.4 1.43,-4.49 5.99,-15.87 6.16,-17.88 -5.59,-0.21 -13.54,1.58 -18.51,3.04 -5.73,1.68 -10.31,3.78 -15.47,6.28 -5.07,2.46 -9.42,5.16 -13.71,8.09 -2.28,1.56 -4.13,3.12 -6.23,4.66 -1.53,1.12 -5.27,3.64 -5.96,5.49z"/>
   <path class="fil7" d="M480.05 676.35l12.57 -7.41c9.61,-5.12 19.65,-8.35 30.75,-10.11 7.25,-1.15 12.66,-0.3 19.82,-0.05 -5.17,-4.73 -54.3,-6.67 -61.34,-0.61 -5.27,4.54 -4.36,14.44 -1.79,18.18z"/>
  </g>
 </g>
</svg>
